<?xml version="1.0" encoding="utf-8"?>
<!-- Generator: Adobe Illustrator 24.1.1, SVG Export Plug-In . SVG Version: 6.00 Build 0)  -->
<svg version="1.1" xmlns="http://www.w3.org/2000/svg" xmlns:xlink="http://www.w3.org/1999/xlink" x="0px" y="0px"
	 viewBox="0 0 20 20" style="enable-background:new 0 0 20 20;" xml:space="preserve">
<style type="text/css">
	.st0{display:none;}
	.st1{display:inline;}
	.st2{fill:#4A484C;}
	.st3{display:inline;fill:none;stroke:#525154;stroke-width:0.75;stroke-miterlimit:10;}
	.st4{fill:none;stroke:#525154;stroke-width:2;stroke-miterlimit:10;}
	.st5{display:inline;fill:none;stroke:#525154;stroke-width:2;stroke-miterlimit:10;}
</style>
<g id="레이어_1" class="st0">
	<g class="st1">
		<path class="st2" d="M18,3v2H2V3H18 M19,2H1v4h18V2L19,2z"/>
	</g>
	<g class="st1">
		<path class="st2" d="M18,9v2H2V9H18 M19,8H1v4h18V8L19,8z"/>
	</g>
	<g class="st1">
		<path class="st2" d="M18,15v2H2v-2H18 M19,14H1v4h18V14L19,14z"/>
	</g>
</g>
<g id="레이어_2" class="st0">
	
		<image style="display:inline;overflow:visible;" width="40" height="40" xlink:href="profile.png"  transform="matrix(0.4271 0 0 0.4271 101.1666 -1.0833)">
	</image>
	
		<image style="display:inline;overflow:visible;" width="42" height="40" xlink:href="search_left.png"  transform="matrix(0.4271 0 0 0.4271 101.1666 -1.0833)">
	</image>
	
		<image style="display:inline;overflow:visible;" width="40" height="40" xlink:href="shopping_bag.png"  transform="matrix(0.4271 0 0 0.4271 101.1666 -1.0833)">
	</image>
	<circle class="st3" cx="10.2" cy="6.5" r="4.1"/>
	<path class="st3" d="M16.9,17.6c-0.1-3.7-3.1-6.6-6.7-6.6c-3.7,0-6.7,2.9-6.7,6.6H16.9z"/>
</g>
<g id="레이어_3">
	<rect x="2.8" y="8.5" class="st4" width="14.5" height="9.2"/>
	<path class="st4" d="M15.1,8.5c0,2.8-10.2,2.8-10.2,0S7.2,3.4,10,3.4S15.1,5.7,15.1,8.5z"/>
</g>
<g id="레이어_4" class="st0">
	<circle class="st5" cx="7.8" cy="7.7" r="4"/>
	<path class="st5" d="M10.5,11l5.8,5.8L10.5,11z"/>
</g>
</svg>
