<svg id="레이어_1" data-name="레이어 1" xmlns="http://www.w3.org/2000/svg" viewBox="0 0 583.66 642.59"><defs><style>.cls-1{fill:#424142;}.cls-2{fill:#f2ccee;stroke:#424142;stroke-miterlimit:10;stroke-width:2px;}</style></defs><path class="cls-1" d="M745.92,848.73c.8,3.56,3.22,5.47,7.51,5.47,4.58,0,6.4-2.16,6.4-5,0-3-1.44-4.63-7.34-6-7-1.7-9.38-4.07-9.38-8.23,0-4.41,3.23-8,9.81-8,7,0,9.93,4.08,10.35,7.94h-4c-.55-2.59-2.16-4.76-6.49-4.76-3.61,0-5.6,1.62-5.6,4.42s1.65,3.86,6.83,5.13c8.4,2,9.89,5.31,9.89,9.13,0,4.75-3.52,8.48-10.74,8.48-7.42,0-10.61-4.07-11.24-8.61Z" transform="translate(-315.82 -214.75)"/><path class="cls-1" d="M778.16,827.43H782v14.51c2.21-2.29,9.72-9.72,14.35-14.51h4.88L788.56,839.9,801.88,857h-4.75L785.8,842.41,782,845.84V857h-3.86Z" transform="translate(-315.82 -214.75)"/><path class="cls-1" d="M818,827.43V857h-3.9V827.43Z" transform="translate(-315.82 -214.75)"/><path class="cls-1" d="M834.59,857V827.43h5.18c4.24,6.91,13.45,21.6,15.11,24.78h0c-.3-3.78-.26-8.45-.26-13.24V827.43h3.69V857h-4.88c-3.9-6.41-13.49-22.19-15.31-25.5h-.09c.21,3.35.21,8.36.21,13.7V857Z" transform="translate(-315.82 -214.75)"/><path class="cls-1" d="M870,812.47v-19h3.35v15.1h9.59V794.47h3.35V808.6h13.24v3.87Z" transform="translate(-315.82 -214.75)"/><path class="cls-1" d="M870,776.15h29.53v3.9H870Z" transform="translate(-315.82 -214.75)"/><path class="cls-1" d="M873.3,753.57v9.51H870v-23h3.35v9.55h26.18v3.94Z" transform="translate(-315.82 -214.75)"/><path class="cls-1" d="M317.82,232.89V221.58c0-.82,0-1.65,0-2.41h1.65a15.1,15.1,0,0,1,.06,1.55,3.38,3.38,0,0,1,3.22-1.79c2.28,0,3.93,1.91,3.93,4.9,0,3.54-1.88,5.43-4.28,5.43a3,3,0,0,1-2.87-1.46v5.09Zm4.47-12.5c-2,0-2.86,1.28-2.86,3.7s.66,3.73,2.72,3.73c1.81,0,2.76-1.48,2.76-3.91C324.91,221.81,324,220.39,322.29,220.39Z" transform="translate(-315.82 -214.75)"/><path class="cls-1" d="M333.92,224.4c0,2,1,3.44,2.7,3.44A2.26,2.26,0,0,0,339,226.3h1.73a4,4,0,0,1-4.16,3c-3.09,0-4.35-2.53-4.35-5.06,0-2.93,1.47-5.27,4.47-5.27,3.19,0,4.22,2.55,4.22,4.65,0,.31,0,.56,0,.82Zm5.25-1.19c0-1.63-.84-2.94-2.51-2.94s-2.51,1.21-2.68,2.94Z" transform="translate(-315.82 -214.75)"/><path class="cls-1" d="M347,221.85c0-1.38,0-2.16,0-2.68h1.67c0,.27.06,1.05.06,2a3.44,3.44,0,0,1,3.3-2.24v1.7c-2,.05-3.3,1.12-3.3,3.61V229H347Z" transform="translate(-315.82 -214.75)"/><path class="cls-1" d="M358.54,226.2a2.23,2.23,0,0,0,2.41,1.72c1.44,0,2-.63,2-1.52s-.45-1.36-2.33-1.81c-2.82-.68-3.4-1.55-3.4-2.9s1-2.76,3.55-2.76,3.6,1.48,3.72,2.84h-1.64a2,2,0,0,0-2.13-1.51c-1.39,0-1.81.66-1.81,1.3s.41,1.11,2.21,1.53c3,.72,3.6,1.71,3.6,3.17,0,1.73-1.38,3-3.83,3s-3.81-1.29-4.06-3.06Z" transform="translate(-315.82 -214.75)"/><path class="cls-1" d="M379.32,224.07c0,2.85-1.63,5.19-4.64,5.19-2.82,0-4.53-2.18-4.53-5.16s1.67-5.17,4.64-5.17C377.53,218.93,379.32,221,379.32,224.07Zm-7.42,0c0,2.17,1.09,3.75,2.85,3.75s2.82-1.5,2.82-3.74-1-3.75-2.85-3.75S371.9,221.85,371.9,224.09Z" transform="translate(-315.82 -214.75)"/><path class="cls-1" d="M385.43,221.66c0-.86,0-1.73,0-2.49h1.66c.05.29.07,1.32.07,1.61a3.09,3.09,0,0,1,3.09-1.85c1.87,0,3.31,1.13,3.31,3.76V229h-1.71V222.9c0-1.5-.58-2.49-2.08-2.49-1.87,0-2.61,1.42-2.61,3.4V229h-1.71Z" transform="translate(-315.82 -214.75)"/><path class="cls-1" d="M407.56,226.87a14.76,14.76,0,0,0,.14,2.15h-1.64a5.56,5.56,0,0,1-.15-1.28,3.15,3.15,0,0,1-3.05,1.52,3,3,0,0,1-3.33-3c0-2.19,1.73-3.2,4.67-3.2h1.67v-.84c0-.88-.27-1.93-2.12-1.93-1.63,0-1.92.82-2.1,1.58H400c.13-1.36,1-2.92,3.81-2.92,2.41,0,3.75,1,3.75,3.23Zm-1.67-2.65h-1.6c-2,0-3,.55-3,1.93a1.73,1.73,0,0,0,1.93,1.77c2.37,0,2.68-1.6,2.68-3.39Z" transform="translate(-315.82 -214.75)"/><path class="cls-1" d="M414.39,229V214.75h1.71V229Z" transform="translate(-315.82 -214.75)"/><path class="cls-1" d="M422.89,216.87v-2.12h1.71v2.12Zm0,2.3h1.71V229h-1.71Z" transform="translate(-315.82 -214.75)"/><path class="cls-1" d="M430.53,227.64l5.68-7h-5.39v-1.44h7.33v1.42l-5.6,7h5.87l-.27,1.44h-7.62Z" transform="translate(-315.82 -214.75)"/><path class="cls-1" d="M445.06,224.4c0,2,1,3.44,2.7,3.44a2.27,2.27,0,0,0,2.37-1.54h1.73a4,4,0,0,1-4.16,3c-3.09,0-4.35-2.53-4.35-5.06,0-2.93,1.47-5.27,4.47-5.27,3.18,0,4.21,2.55,4.21,4.65,0,.31,0,.56,0,.82Zm5.25-1.19c0-1.63-.84-2.94-2.51-2.94s-2.51,1.21-2.69,2.94Z" transform="translate(-315.82 -214.75)"/><path class="cls-1" d="M466.43,214.75v11.49c0,.92,0,1.83,0,2.78h-1.63a9.49,9.49,0,0,1-.09-1.4,3.09,3.09,0,0,1-3.1,1.64c-2.54,0-4.1-2.06-4.1-5.06s1.69-5.27,4.42-5.27c1.75,0,2.52.7,2.78,1.27v-5.45ZM462,227.82c2.3,0,2.82-1.71,2.82-3.87s-.46-3.58-2.68-3.58c-1.75,0-2.82,1.38-2.82,3.77S460.42,227.82,462,227.82Z" transform="translate(-315.82 -214.75)"/><path class="cls-1" d="M317.82,238.09h1.71v5.81a3.21,3.21,0,0,1,3.13-1.63c2.49,0,4,2,4,5s-1.52,5.36-4.3,5.36a2.86,2.86,0,0,1-2.89-1.53,10.29,10.29,0,0,1-.08,1.3H317.8c0-1.11,0-2.22,0-3.31Zm4.45,5.62c-2.1,0-2.84,1.4-2.84,3.75,0,2.06.66,3.69,2.74,3.69,1.75,0,2.78-1.49,2.78-3.88C325,245.13,324,243.71,322.27,243.71Z" transform="translate(-315.82 -214.75)"/><path class="cls-1" d="M333.94,247.73c0,2,1,3.44,2.7,3.44a2.26,2.26,0,0,0,2.37-1.53h1.73a4,4,0,0,1-4.16,3c-3.09,0-4.35-2.52-4.35-5.05,0-2.94,1.47-5.27,4.47-5.27,3.19,0,4.22,2.55,4.22,4.65,0,.31,0,.56,0,.81Zm5.25-1.18c0-1.64-.84-2.94-2.51-2.94s-2.51,1.21-2.68,2.94Z" transform="translate(-315.82 -214.75)"/><path class="cls-1" d="M354.34,250.2a15.24,15.24,0,0,0,.13,2.16h-1.63a4.91,4.91,0,0,1-.16-1.28,3.13,3.13,0,0,1-3.05,1.51,3,3,0,0,1-3.32-3c0-2.2,1.73-3.21,4.66-3.21h1.67v-.83c0-.88-.27-1.93-2.11-1.93-1.64,0-1.93.82-2.1,1.58h-1.66c.14-1.36,1-2.92,3.81-2.92,2.41,0,3.76,1,3.76,3.23Zm-1.68-2.64h-1.59c-2,0-3,.54-3,1.92a1.73,1.73,0,0,0,1.92,1.77c2.37,0,2.68-1.59,2.68-3.38Z" transform="translate(-315.82 -214.75)"/><path class="cls-1" d="M369,249.48c0,1,0,2.3,0,2.88h-1.65c0-.25-.06-.86-.08-1.48a2.92,2.92,0,0,1-3,1.71c-1.67,0-3.26-.83-3.26-3.61V242.5h1.69v6.13c0,1.28.41,2.49,2,2.49,1.81,0,2.51-1,2.51-3.48V242.5H369Z" transform="translate(-315.82 -214.75)"/><path class="cls-1" d="M374.74,242.5h1.71v-2.91h1.69v2.91h2.18v1.38h-2.18v5.78c0,1,.23,1.46,1.13,1.46a4.34,4.34,0,0,0,.85-.08v1.28a4.37,4.37,0,0,1-1.47.18c-1.54,0-2.2-.8-2.2-2.43v-6.19h-1.71Z" transform="translate(-315.82 -214.75)"/><path class="cls-1" d="M387.14,242.5c1.6,4.73,2.47,7.33,2.75,8.34h0c.31-1.12,1-3.38,2.62-8.34h1.71l-3.54,10.31c-1,2.89-1.75,3.61-3.75,3.61-.31,0-.68,0-1.07-.06v-1.47c.25,0,.55,0,.82,0,1.24,0,1.71-.55,2.29-2.18L385.3,242.5Z" transform="translate(-315.82 -214.75)"/><path class="cls-1" d="M317.82,275.7V261.43h1.71V275.7Z" transform="translate(-315.82 -214.75)"/><path class="cls-1" d="M333.55,273.54a15.48,15.48,0,0,0,.13,2.16h-1.63a5,5,0,0,1-.16-1.29,3.13,3.13,0,0,1-3.05,1.52,3,3,0,0,1-3.32-3c0-2.2,1.73-3.21,4.66-3.21h1.67v-.84c0-.87-.27-1.92-2.11-1.92-1.64,0-1.93.81-2.1,1.57H326c.14-1.36,1-2.91,3.81-2.91,2.42,0,3.76,1,3.76,3.22Zm-1.68-2.65h-1.59c-2,0-3,.55-3,1.93a1.73,1.73,0,0,0,1.92,1.77c2.37,0,2.68-1.6,2.68-3.38Z" transform="translate(-315.82 -214.75)"/><path class="cls-1" d="M340.37,261.43h1.71v5.81a3.21,3.21,0,0,1,3.13-1.63c2.49,0,4.05,2,4.05,4.95s-1.52,5.37-4.3,5.37a2.85,2.85,0,0,1-2.89-1.54,10.47,10.47,0,0,1-.08,1.31h-1.64c0-1.11,0-2.22,0-3.31Zm4.46,5.61c-2.1,0-2.84,1.4-2.84,3.76,0,2.06.66,3.69,2.74,3.69,1.75,0,2.78-1.5,2.78-3.89C347.51,268.46,346.54,267,344.83,267Z" transform="translate(-315.82 -214.75)"/><rect class="cls-2" x="1" y="76.53" width="540.98" height="525.07"/></svg>