<?xml version="1.0" encoding="utf-8"?>
<!-- Generator: Adobe Illustrator 24.1.1, SVG Export Plug-In . SVG Version: 6.00 Build 0)  -->
<svg version="1.1" id="레이어_1" xmlns="http://www.w3.org/2000/svg" xmlns:xlink="http://www.w3.org/1999/xlink" x="0px"
	 y="0px" viewBox="0 0 1080 1080" style="enable-background:new 0 0 1080 1080;" xml:space="preserve">
<style type="text/css">
	.st0{fill:#424142;}
	.st1{fill:none;stroke:#424142;stroke-width:2;stroke-miterlimit:10;}
	.st2{fill:#0087FF;}
	.st3{fill:none;stroke:#0087FF;stroke-miterlimit:10;}
</style>
<g>
	<path class="st0" d="M677.76,852.68c0.81,3.56,3.23,5.47,7.51,5.47c4.58,0,6.41-2.17,6.41-4.96c0-2.97-1.44-4.63-7.34-6.03
		c-6.96-1.7-9.38-4.07-9.38-8.23c0-4.41,3.23-7.98,9.8-7.98c7.04,0,9.93,4.07,10.35,7.94h-3.99c-0.55-2.59-2.16-4.75-6.49-4.75
		c-3.61,0-5.6,1.61-5.6,4.41c0,2.76,1.65,3.86,6.83,5.13c8.4,2.04,9.89,5.3,9.89,9.12c0,4.75-3.52,8.49-10.74,8.49
		c-7.43,0-10.61-4.07-11.25-8.61H677.76z"/>
	<path class="st0" d="M710.01,831.38h3.86v14.51c2.21-2.29,9.72-9.72,14.34-14.51h4.88l-12.69,12.48l13.32,17.06h-4.75l-11.33-14.55
		l-3.78,3.44v11.12h-3.86V831.38z"/>
	<path class="st0" d="M749.89,831.38v29.53h-3.9v-29.53H749.89z"/>
	<path class="st0" d="M766.44,860.91v-29.53h5.18c4.24,6.92,13.45,21.6,15.11,24.78h0.04c-0.3-3.78-0.25-8.44-0.25-13.24v-11.54
		h3.69v29.53h-4.88c-3.9-6.41-13.49-22.19-15.32-25.5h-0.08c0.21,3.35,0.21,8.36,0.21,13.71v11.8H766.44z"/>
</g>
<g>
	<path class="st0" d="M801.79,816.42v-18.97h3.35v15.11h9.59v-14.13h3.35v14.13h13.24v3.86H801.79z"/>
	<path class="st0" d="M801.79,780.1h29.53v3.9h-29.53V780.1z"/>
	<path class="st0" d="M805.15,757.53v9.5h-3.35v-23h3.35v9.55h26.18v3.95H805.15z"/>
</g>
<g>
	<path class="st0" d="M249.66,236.84v-11.31c0-0.82,0-1.65-0.02-2.41h1.65c0.04,0.33,0.06,0.91,0.06,1.56
		c0.54-1.01,1.54-1.79,3.23-1.79c2.27,0,3.93,1.91,3.93,4.9c0,3.54-1.89,5.42-4.28,5.42c-1.59,0-2.43-0.66-2.88-1.46v5.09H249.66z
		 M254.14,224.34c-2.04,0-2.86,1.28-2.86,3.69c0,2.31,0.66,3.73,2.72,3.73c1.81,0,2.76-1.48,2.76-3.91
		C256.76,225.76,255.81,224.34,254.14,224.34z"/>
	<path class="st0" d="M265.77,228.35c0.02,2,1.03,3.44,2.7,3.44c1.56,0,2.06-0.82,2.37-1.54h1.73c-0.39,1.26-1.46,2.96-4.16,2.96
		c-3.09,0-4.35-2.53-4.35-5.05c0-2.94,1.48-5.27,4.47-5.27c3.19,0,4.22,2.55,4.22,4.65c0,0.31,0,0.56-0.02,0.82H265.77z
		 M271.01,227.16c-0.02-1.63-0.84-2.94-2.51-2.94c-1.75,0-2.51,1.21-2.68,2.94H271.01z"/>
	<path class="st0" d="M278.81,225.8c0-1.38-0.02-2.16-0.02-2.68h1.67c0.02,0.27,0.06,1.05,0.06,2c0.51-1.32,1.67-2.2,3.31-2.24v1.69
		c-2.02,0.06-3.31,1.13-3.31,3.62v4.78h-1.71V225.8z"/>
	<path class="st0" d="M290.39,230.16c0.27,1.07,1.07,1.71,2.41,1.71c1.44,0,2-0.62,2-1.52c0-0.93-0.45-1.36-2.33-1.81
		c-2.82-0.68-3.4-1.56-3.4-2.9c0-1.38,1.03-2.76,3.56-2.76c2.55,0,3.6,1.48,3.71,2.84h-1.63c-0.16-0.62-0.64-1.52-2.14-1.52
		c-1.38,0-1.81,0.66-1.81,1.3c0,0.74,0.41,1.11,2.22,1.54c2.99,0.72,3.6,1.71,3.6,3.17c0,1.73-1.38,2.99-3.83,2.99
		c-2.55,0-3.81-1.28-4.06-3.05H290.39z"/>
	<path class="st0" d="M311.17,228.02c0,2.86-1.63,5.19-4.65,5.19c-2.82,0-4.53-2.18-4.53-5.15c0-2.92,1.67-5.17,4.65-5.17
		C309.38,222.89,311.17,224.93,311.17,228.02z M303.74,228.04c0,2.18,1.09,3.75,2.86,3.75c1.79,0,2.82-1.5,2.82-3.73
		c0-2.22-1.01-3.75-2.86-3.75C304.72,224.3,303.74,225.8,303.74,228.04z"/>
	<path class="st0" d="M317.28,225.61c0-0.86,0-1.73-0.02-2.49h1.65c0.06,0.29,0.08,1.32,0.08,1.61c0.39-0.84,1.19-1.85,3.09-1.85
		c1.87,0,3.3,1.13,3.3,3.75v6.34h-1.71v-6.12c0-1.5-0.58-2.49-2.08-2.49c-1.87,0-2.6,1.42-2.6,3.4v5.21h-1.71V225.61z"/>
	<path class="st0" d="M339.41,230.82c0,0.91,0.08,1.87,0.14,2.16h-1.63c-0.08-0.21-0.14-0.68-0.16-1.28
		c-0.35,0.64-1.15,1.52-3.05,1.52c-2.33,0-3.32-1.52-3.32-3.01c0-2.2,1.73-3.21,4.67-3.21h1.67v-0.84c0-0.88-0.27-1.92-2.12-1.92
		c-1.63,0-1.92,0.82-2.1,1.57h-1.65c0.14-1.36,0.97-2.92,3.81-2.92c2.41,0,3.75,0.99,3.75,3.23V230.82z M337.74,228.17h-1.59
		c-1.96,0-3.01,0.54-3.01,1.92c0,1.03,0.7,1.77,1.92,1.77c2.37,0,2.68-1.59,2.68-3.38V228.17z"/>
	<path class="st0" d="M346.24,232.97v-14.27h1.71v14.27H346.24z"/>
	<path class="st0" d="M354.73,220.82v-2.12h1.71v2.12H354.73z M354.73,223.12h1.71v9.86h-1.71V223.12z"/>
	<path class="st0" d="M362.38,231.59l5.68-7.04h-5.39v-1.44H370v1.42l-5.6,7h5.87l-0.27,1.44h-7.62V231.59z"/>
	<path class="st0" d="M376.9,228.35c0.02,2,1.03,3.44,2.7,3.44c1.56,0,2.06-0.82,2.37-1.54h1.73c-0.39,1.26-1.46,2.96-4.16,2.96
		c-3.09,0-4.35-2.53-4.35-5.05c0-2.94,1.48-5.27,4.47-5.27c3.19,0,4.22,2.55,4.22,4.65c0,0.31,0,0.56-0.02,0.82H376.9z
		 M382.15,227.16c-0.02-1.63-0.84-2.94-2.51-2.94c-1.75,0-2.51,1.21-2.68,2.94H382.15z"/>
	<path class="st0" d="M398.27,218.71v11.49c0,0.91,0,1.83,0.02,2.78h-1.63c-0.06-0.25-0.1-1.01-0.1-1.4
		c-0.49,1.03-1.48,1.63-3.09,1.63c-2.55,0-4.1-2.06-4.1-5.05c0-3.03,1.69-5.27,4.41-5.27c1.75,0,2.53,0.7,2.78,1.26v-5.44H398.27z
		 M393.82,231.77c2.29,0,2.82-1.71,2.82-3.87c0-2.2-0.47-3.58-2.68-3.58c-1.75,0-2.82,1.38-2.82,3.77
		C391.14,230.47,392.27,231.77,393.82,231.77z"/>
	<path class="st0" d="M249.66,242.04h1.71v5.81c0.43-0.84,1.34-1.63,3.13-1.63c2.49,0,4.04,2.04,4.04,4.96
		c0,2.99-1.52,5.37-4.3,5.37c-1.57,0-2.41-0.58-2.9-1.54c0,0.51-0.04,1.03-0.08,1.3h-1.63c0.02-1.11,0.02-2.22,0.02-3.3V242.04z
		 M254.12,247.66c-2.1,0-2.84,1.4-2.84,3.75c0,2.06,0.66,3.69,2.74,3.69c1.75,0,2.78-1.5,2.78-3.89
		C256.8,249.08,255.83,247.66,254.12,247.66z"/>
	<path class="st0" d="M265.79,251.68c0.02,2,1.03,3.44,2.7,3.44c1.56,0,2.06-0.82,2.37-1.54h1.73c-0.39,1.26-1.46,2.96-4.16,2.96
		c-3.09,0-4.35-2.53-4.35-5.05c0-2.94,1.48-5.27,4.47-5.27c3.19,0,4.22,2.55,4.22,4.65c0,0.31,0,0.56-0.02,0.82H265.79z
		 M271.03,250.5c-0.02-1.63-0.84-2.94-2.51-2.94c-1.75,0-2.51,1.21-2.68,2.94H271.03z"/>
	<path class="st0" d="M286.18,254.15c0,0.91,0.08,1.87,0.14,2.16h-1.63c-0.08-0.21-0.14-0.68-0.16-1.28
		c-0.35,0.64-1.15,1.52-3.05,1.52c-2.33,0-3.32-1.52-3.32-3.01c0-2.2,1.73-3.21,4.67-3.21h1.67v-0.84c0-0.88-0.27-1.92-2.12-1.92
		c-1.63,0-1.92,0.82-2.1,1.57h-1.65c0.14-1.36,0.97-2.92,3.81-2.92c2.41,0,3.75,0.99,3.75,3.23V254.15z M284.51,251.51h-1.59
		c-1.96,0-3.01,0.54-3.01,1.92c0,1.03,0.7,1.77,1.92,1.77c2.37,0,2.68-1.59,2.68-3.38V251.51z"/>
	<path class="st0" d="M300.83,253.43c0,0.97,0.02,2.29,0.02,2.88h-1.65c-0.04-0.25-0.06-0.86-0.08-1.48
		c-0.49,1.09-1.42,1.71-2.97,1.71c-1.67,0-3.27-0.84-3.27-3.62v-6.47h1.69v6.12c0,1.28,0.41,2.49,2.04,2.49
		c1.81,0,2.51-1.01,2.51-3.48v-5.13h1.71V253.43z"/>
	<path class="st0" d="M306.59,246.45h1.71v-2.92h1.69v2.92h2.18v1.38h-2.18v5.77c0,0.97,0.23,1.46,1.13,1.46
		c0.23,0,0.58-0.02,0.86-0.08v1.28c-0.41,0.16-0.99,0.18-1.48,0.18c-1.54,0-2.2-0.8-2.2-2.43v-6.18h-1.71V246.45z"/>
	<path class="st0" d="M318.99,246.45c1.59,4.72,2.47,7.33,2.74,8.34h0.02c0.31-1.13,1.01-3.38,2.62-8.34h1.71l-3.54,10.3
		c-0.99,2.9-1.75,3.62-3.75,3.62c-0.31,0-0.68-0.02-1.07-0.06v-1.48c0.25,0.02,0.54,0.04,0.82,0.04c1.24,0,1.71-0.54,2.29-2.18
		l-3.69-10.24H318.99z"/>
	<path class="st0" d="M249.66,279.65v-14.27h1.71v14.27H249.66z"/>
	<path class="st0" d="M265.39,277.49c0,0.91,0.08,1.87,0.14,2.16h-1.63c-0.08-0.21-0.14-0.68-0.16-1.28
		c-0.35,0.64-1.15,1.52-3.05,1.52c-2.33,0-3.32-1.52-3.32-3.01c0-2.2,1.73-3.21,4.67-3.21h1.67v-0.84c0-0.88-0.27-1.92-2.12-1.92
		c-1.63,0-1.92,0.82-2.1,1.57h-1.65c0.14-1.36,0.97-2.92,3.81-2.92c2.41,0,3.75,0.99,3.75,3.23V277.49z M263.72,274.85h-1.59
		c-1.96,0-3.01,0.54-3.01,1.92c0,1.03,0.7,1.77,1.92,1.77c2.37,0,2.68-1.59,2.68-3.38V274.85z"/>
	<path class="st0" d="M272.22,265.38h1.71v5.81c0.43-0.84,1.34-1.63,3.13-1.63c2.49,0,4.04,2.04,4.04,4.96
		c0,2.99-1.52,5.37-4.3,5.37c-1.57,0-2.41-0.58-2.9-1.54c0,0.51-0.04,1.03-0.08,1.3h-1.63c0.02-1.11,0.02-2.22,0.02-3.3V265.38z
		 M276.67,271c-2.1,0-2.84,1.4-2.84,3.75c0,2.06,0.66,3.69,2.74,3.69c1.75,0,2.78-1.5,2.78-3.89
		C279.36,272.42,278.38,271,276.67,271z"/>
</g>
<rect x="248.67" y="295.24" class="st1" width="540.98" height="525.07"/>
<g>
	<path class="st2" d="M364.77,506.44c-3.84,0.47-8.36,0.88-13.56,1.23c-5.21,0.35-9.85,0.61-13.92,0.76
		c-4.54,0.16-12.39,0.25-23.55,0.29c-11.16,0.04-17.01,0.06-17.56,0.06v-11.04h12.21l-0.35-50.26h-9.4v-11.16h60.71v11.16h-10.1
		l-0.23,49.32c2.11-0.16,4.66-0.33,7.63-0.53c2.97-0.19,5.68-0.45,8.1-0.76V506.44z M320.97,497.75c3.44-0.08,6.28-0.12,8.51-0.12
		c2.23,0,4.56-0.04,6.99-0.12l0.35-50.03H320.5L320.97,497.75z M371.23,534.63V429.76h12.68v104.87H371.23z"/>
	<path class="st2" d="M453.67,501.16v33.47h-12.92v-33.47h-42.63v-10.92h97.94v10.92H453.67z M410.34,478.37V431.4h12.68v11.98
		h47.91V431.4h12.68v46.97H410.34z M470.93,454.06h-47.91v13.5h47.91V454.06z"/>
	<path class="st2" d="M583.26,460.11c1.53,3.09,3.54,5.93,6.05,8.51c2.66,2.74,5.6,5.03,8.81,6.87c3.21,1.84,6.46,3.31,9.75,4.4
		c-1.49,1.49-3.05,3.11-4.7,4.87c-1.64,1.76-2.86,3.19-3.64,4.29c-1.72-0.63-3.9-1.72-6.52-3.29c-2.62-1.56-5.27-3.37-7.93-5.4
		c-2.11-1.64-4.09-3.46-5.93-5.46c-1.84-2-3.39-4.17-4.64-6.52c-1.1,2.35-2.49,4.58-4.17,6.69c-1.68,2.11-3.62,4.15-5.81,6.11
		c-2.51,2.19-5.19,4.21-8.04,6.05c-2.86,1.84-5.54,3.31-8.04,4.4c-1.02-1.02-2.47-2.35-4.34-3.99c-1.88-1.64-3.72-3.17-5.52-4.58
		c4.54-1.64,8.79-3.8,12.74-6.46c3.95-2.66,7.3-5.79,10.04-9.39c2.04-2.66,3.6-5.42,4.7-8.28c1.1-2.86,1.64-5.97,1.64-9.34v-4.46
		h-20.43v-10.92h54.14v10.92h-20.43v4.81C580.97,453.63,581.73,457.02,583.26,460.11z M560.06,532.63v-33.59h12.8v22.55h60.6v11.04
		H560.06z M618.31,507.14v-77.39h12.57v77.39H618.31z"/>
	<path class="st2" d="M713.55,481.54c-3.6,0.78-9.26,1.61-16.97,2.47c-7.71,0.86-15.13,1.37-22.25,1.53
		c-1.64,0-5.87,0.02-12.68,0.06c-6.81,0.04-10.3,0.06-10.45,0.06v-51.67h50.14v11.04h-37.7v29.36l15.38-0.12
		c4.62-0.08,10.73-0.53,18.32-1.35c7.59-0.82,13-1.55,16.21-2.17V481.54z M661.76,532.63v-35.47h12.92v24.43h59.3v11.04H661.76z
		 M730.93,429.76v26.07h13.86v11.16h-13.86v38.64h-12.57v-75.86H730.93z"/>
	<path class="st2" d="M295.13,600.98v-11.04h61.54v11.04H295.13z M306.06,614.3c5.09-5.05,11.86-7.58,20.32-7.58
		c8.06,0,14.66,2.54,19.79,7.63c5.13,5.09,7.69,10.96,7.69,17.62c0,6.42-2.57,12.29-7.69,17.62c-5.13,5.33-11.76,7.99-19.91,7.99
		c-8.22,0-14.91-2.56-20.08-7.69c-5.17-5.13-7.75-11.1-7.75-17.91C298.42,625.25,300.97,619.35,306.06,614.3z M309.81,583.01v-10.57
		h32.53v10.57H309.81z M315.39,642.31c2.62,2.74,6.24,4.11,10.86,4.11c4.46,0,8.02-1.37,10.69-4.11c2.66-2.74,3.99-6.15,3.99-10.22
		c0-3.99-1.31-7.4-3.93-10.22c-2.62-2.82-6.21-4.23-10.75-4.23c-4.62,0-8.24,1.41-10.86,4.23c-2.62,2.82-3.93,6.22-3.93,10.22
		C311.46,636.17,312.77,639.57,315.39,642.31z M379.33,570.68v42.16h14.56v11.86h-14.56v50.85h-12.45V570.68H379.33z"/>
	<path class="st2" d="M465.53,648.3c-3.52,0.55-8.83,1.19-15.91,1.94c-7.09,0.75-14.03,1.19-20.84,1.35c-1.8,0-5.81,0.02-12.04,0.06
		c-6.22,0.04-9.42,0.06-9.57,0.06v-43.45h33.35v-21.14h-33.35v-11.04h45.8v42.98h-33.12v21.61l12.33-0.12
		c5.32-0.08,11.37-0.49,18.14-1.23c6.77-0.74,11.84-1.39,15.21-1.94V648.3z M474.93,675.55v-58.13h-16.44v-11.98h16.44v-34.76h12.8
		v104.87H474.93z"/>
	<path class="st2" d="M596,577.02c-0.08,7.59-0.96,14.97-2.64,22.14c-1.68,7.16-4.25,14-7.69,20.49c-3.68,7.2-8.4,13.9-14.15,20.08
		c-5.75,6.19-12.55,11.63-20.38,16.32c-1.17-1.1-2.88-2.53-5.11-4.29c-2.23-1.76-4.13-3.15-5.69-4.17
		c7.12-3.68,13.35-7.93,18.67-12.74c5.32-4.81,9.71-10.08,13.15-15.79c2.9-4.62,5.15-9.53,6.75-14.74
		c1.6-5.21,2.56-10.63,2.88-16.26h-35.58v-11.04H596z M624.42,570.56v41.34h14.56v11.63h-14.56v52.02h-12.57V570.56H624.42z"/>
	<path class="st2" d="M703.45,577.02c-0.08,7.59-0.96,14.97-2.64,22.14c-1.68,7.16-4.25,14-7.69,20.49
		c-3.76,7.2-8.5,13.9-14.21,20.08c-5.72,6.19-12.49,11.63-20.32,16.32c-1.1-1.1-2.78-2.53-5.05-4.29c-2.27-1.76-4.19-3.15-5.75-4.17
		c6.97-3.68,13.07-7.87,18.32-12.57c5.24-4.7,9.63-9.82,13.15-15.38c2.97-4.7,5.3-9.71,6.99-15.03c1.68-5.32,2.68-10.84,2.99-16.56
		h-35.7v-11.04H703.45z M722.48,675.55V570.68h12.68v104.87H722.48z"/>
</g>
<g>
	<path class="st3" d="M357.2,510.79c-3.84,0.47-8.36,0.88-13.56,1.23c-5.21,0.35-9.85,0.61-13.92,0.76
		c-4.54,0.16-12.39,0.25-23.55,0.29c-11.16,0.04-17.01,0.06-17.56,0.06V502.1h12.21l-0.35-50.26h-9.4v-11.16h60.71v11.16h-10.1
		l-0.23,49.32c2.11-0.16,4.66-0.33,7.63-0.53c2.97-0.19,5.68-0.45,8.1-0.76V510.79z M313.4,502.1c3.44-0.08,6.28-0.12,8.51-0.12
		c2.23,0,4.56-0.04,6.99-0.12l0.35-50.03h-16.32L313.4,502.1z M363.66,538.97V434.1h12.68v104.87H363.66z"/>
	<path class="st3" d="M446.1,505.5v33.47h-12.92V505.5h-42.63v-10.92h97.94v10.92H446.1z M402.77,482.72v-46.97h12.68v11.98h47.91
		v-11.98h12.68v46.97H402.77z M463.36,458.41h-47.91v13.5h47.91V458.41z"/>
	<path class="st3" d="M575.69,464.46c1.53,3.09,3.54,5.93,6.05,8.51c2.66,2.74,5.6,5.03,8.81,6.87c3.21,1.84,6.46,3.31,9.75,4.4
		c-1.49,1.49-3.05,3.11-4.7,4.87c-1.64,1.76-2.86,3.19-3.64,4.29c-1.72-0.63-3.9-1.72-6.52-3.29c-2.62-1.56-5.27-3.37-7.93-5.4
		c-2.11-1.64-4.09-3.46-5.93-5.46c-1.84-2-3.39-4.17-4.64-6.52c-1.1,2.35-2.49,4.58-4.17,6.69c-1.68,2.11-3.62,4.15-5.81,6.11
		c-2.51,2.19-5.19,4.21-8.04,6.05c-2.86,1.84-5.54,3.31-8.04,4.4c-1.02-1.02-2.47-2.35-4.34-3.99c-1.88-1.64-3.72-3.17-5.52-4.58
		c4.54-1.64,8.79-3.8,12.74-6.46c3.95-2.66,7.3-5.79,10.04-9.39c2.04-2.66,3.6-5.42,4.7-8.28c1.1-2.86,1.64-5.97,1.64-9.34v-4.46
		H539.7v-10.92h54.14v10.92H573.4v4.81C573.4,457.98,574.16,461.37,575.69,464.46z M552.5,536.98v-33.59h12.8v22.55h60.6v11.04
		H552.5z M610.74,511.49V434.1h12.57v77.39H610.74z"/>
	<path class="st3" d="M705.98,485.89c-3.6,0.78-9.26,1.61-16.97,2.47c-7.71,0.86-15.13,1.37-22.25,1.53
		c-1.64,0-5.87,0.02-12.68,0.06c-6.81,0.04-10.3,0.06-10.45,0.06v-51.67h50.14v11.04h-37.7v29.36l15.38-0.12
		c4.62-0.08,10.73-0.53,18.32-1.35c7.59-0.82,13-1.55,16.21-2.17V485.89z M654.19,536.98v-35.47h12.92v24.43h59.3v11.04H654.19z
		 M723.36,434.1v26.07h13.86v11.16h-13.86v38.64H710.8V434.1H723.36z"/>
	<path class="st3" d="M287.56,605.32v-11.04h61.54v11.04H287.56z M298.49,618.65c5.09-5.05,11.86-7.58,20.32-7.58
		c8.06,0,14.66,2.54,19.79,7.63c5.13,5.09,7.69,10.96,7.69,17.62c0,6.42-2.57,12.29-7.69,17.62c-5.13,5.33-11.76,7.99-19.91,7.99
		c-8.22,0-14.91-2.56-20.08-7.69c-5.17-5.13-7.75-11.1-7.75-17.91C290.85,629.59,293.4,623.7,298.49,618.65z M302.24,587.36v-10.57
		h32.53v10.57H302.24z M307.82,646.66c2.62,2.74,6.24,4.11,10.86,4.11c4.46,0,8.02-1.37,10.69-4.11c2.66-2.74,3.99-6.15,3.99-10.22
		c0-3.99-1.31-7.4-3.93-10.22c-2.62-2.82-6.21-4.23-10.75-4.23c-4.62,0-8.24,1.41-10.86,4.23c-2.62,2.82-3.93,6.22-3.93,10.22
		C303.89,640.51,305.2,643.92,307.82,646.66z M371.77,575.02v42.16h14.56v11.86h-14.56v50.85h-12.45V575.02H371.77z"/>
	<path class="st3" d="M457.96,652.65c-3.52,0.55-8.83,1.19-15.91,1.94c-7.09,0.75-14.03,1.19-20.84,1.35
		c-1.8,0-5.81,0.02-12.04,0.06c-6.22,0.04-9.42,0.06-9.57,0.06V612.6h33.35v-21.14H399.6v-11.04h45.8v42.98h-33.12v21.61l12.33-0.12
		c5.32-0.08,11.37-0.49,18.14-1.23c6.77-0.74,11.84-1.39,15.21-1.94V652.65z M467.36,679.89v-58.13h-16.44v-11.98h16.44v-34.76h12.8
		v104.87H467.36z"/>
	<path class="st3" d="M588.43,581.37c-0.08,7.59-0.96,14.97-2.64,22.14c-1.68,7.16-4.25,14-7.69,20.49
		c-3.68,7.2-8.4,13.9-14.15,20.08c-5.75,6.19-12.55,11.63-20.38,16.32c-1.17-1.1-2.88-2.53-5.11-4.29c-2.23-1.76-4.13-3.15-5.7-4.17
		c7.12-3.68,13.35-7.93,18.67-12.74c5.32-4.81,9.71-10.08,13.15-15.79c2.9-4.62,5.15-9.53,6.75-14.74
		c1.6-5.21,2.56-10.63,2.88-16.26h-35.58v-11.04H588.43z M616.85,574.91v41.34h14.56v11.63h-14.56v52.02h-12.57V574.91H616.85z"/>
	<path class="st3" d="M695.88,581.37c-0.08,7.59-0.96,14.97-2.64,22.14c-1.68,7.16-4.25,14-7.69,20.49
		c-3.76,7.2-8.5,13.9-14.21,20.08c-5.72,6.19-12.49,11.63-20.32,16.32c-1.1-1.1-2.78-2.53-5.05-4.29c-2.27-1.76-4.19-3.15-5.75-4.17
		c6.97-3.68,13.07-7.87,18.32-12.57c5.24-4.7,9.63-9.82,13.15-15.38c2.97-4.7,5.3-9.71,6.99-15.03c1.68-5.32,2.68-10.84,2.99-16.56
		h-35.7v-11.04H695.88z M714.91,679.89V575.02h12.68v104.87H714.91z"/>
</g>
</svg>
