<?xml version="1.0" encoding="utf-8"?>
<!-- Generator: Adobe Illustrator 24.1.1, SVG Export Plug-In . SVG Version: 6.00 Build 0)  -->
<svg version="1.1" id="레이어_1" xmlns="http://www.w3.org/2000/svg" xmlns:xlink="http://www.w3.org/1999/xlink" x="0px"
	 y="0px" viewBox="0 0 1920 1080" style="enable-background:new 0 0 1920 1080;" xml:space="preserve">
<style type="text/css">
	.st0{fill:#424142;}
	.st1{fill:#F2F272;stroke:#424142;stroke-width:2;stroke-miterlimit:10;}
</style>
<g>
	<path class="st0" d="M1092.44,848.42c0.81,3.56,3.23,5.47,7.51,5.47c4.58,0,6.41-2.17,6.41-4.96c0-2.97-1.44-4.63-7.34-6.03
		c-6.96-1.7-9.38-4.07-9.38-8.23c0-4.41,3.23-7.98,9.8-7.98c7.04,0,9.93,4.07,10.35,7.94h-3.99c-0.55-2.59-2.16-4.75-6.49-4.75
		c-3.61,0-5.6,1.61-5.6,4.41c0,2.76,1.65,3.86,6.83,5.13c8.4,2.04,9.89,5.3,9.89,9.12c0,4.75-3.52,8.49-10.74,8.49
		c-7.43,0-10.61-4.07-11.25-8.61H1092.44z"/>
	<path class="st0" d="M1124.68,827.12h3.86v14.51c2.21-2.29,9.72-9.72,14.34-14.51h4.88l-12.69,12.48l13.32,17.06h-4.75
		l-11.33-14.55l-3.78,3.44v11.12h-3.86V827.12z"/>
	<path class="st0" d="M1164.57,827.12v29.53h-3.9v-29.53H1164.57z"/>
	<path class="st0" d="M1181.12,856.66v-29.53h5.18c4.24,6.92,13.45,21.6,15.11,24.78h0.04c-0.3-3.78-0.25-8.44-0.25-13.24v-11.54
		h3.69v29.53H1200c-3.9-6.41-13.49-22.19-15.32-25.5h-0.08c0.21,3.35,0.21,8.36,0.21,13.71v11.8H1181.12z"/>
</g>
<g>
	<path class="st0" d="M1216.47,812.16v-18.97h3.35v15.11h9.59v-14.13h3.35v14.13H1246v3.86H1216.47z"/>
	<path class="st0" d="M1216.47,775.84H1246v3.9h-29.53V775.84z"/>
	<path class="st0" d="M1219.82,753.27v9.5h-3.35v-23h3.35v9.55H1246v3.95H1219.82z"/>
</g>
<g>
	<path class="st0" d="M664.34,232.59v-11.31c0-0.82,0-1.65-0.02-2.41h1.65c0.04,0.33,0.06,0.91,0.06,1.56
		c0.54-1.01,1.54-1.79,3.23-1.79c2.27,0,3.93,1.91,3.93,4.9c0,3.54-1.89,5.42-4.28,5.42c-1.59,0-2.43-0.66-2.88-1.46v5.09H664.34z
		 M668.81,220.09c-2.04,0-2.86,1.28-2.86,3.69c0,2.31,0.66,3.73,2.72,3.73c1.81,0,2.76-1.48,2.76-3.91
		C671.43,221.51,670.48,220.09,668.81,220.09z"/>
	<path class="st0" d="M680.44,224.09c0.02,2,1.03,3.44,2.7,3.44c1.56,0,2.06-0.82,2.37-1.54h1.73c-0.39,1.26-1.46,2.96-4.16,2.96
		c-3.09,0-4.35-2.53-4.35-5.05c0-2.94,1.48-5.27,4.47-5.27c3.19,0,4.22,2.55,4.22,4.65c0,0.31,0,0.56-0.02,0.82H680.44z
		 M685.69,222.91c-0.02-1.63-0.84-2.94-2.51-2.94c-1.75,0-2.51,1.21-2.68,2.94H685.69z"/>
	<path class="st0" d="M693.49,221.55c0-1.38-0.02-2.16-0.02-2.68h1.67c0.02,0.27,0.06,1.05,0.06,2c0.51-1.32,1.67-2.2,3.31-2.24
		v1.69c-2.02,0.06-3.31,1.13-3.31,3.62v4.78h-1.71V221.55z"/>
	<path class="st0" d="M705.06,225.9c0.27,1.07,1.07,1.71,2.41,1.71c1.44,0,2-0.62,2-1.52c0-0.93-0.45-1.36-2.33-1.81
		c-2.82-0.68-3.4-1.56-3.4-2.9c0-1.38,1.03-2.76,3.56-2.76c2.55,0,3.6,1.48,3.71,2.84h-1.63c-0.16-0.62-0.64-1.52-2.14-1.52
		c-1.38,0-1.81,0.66-1.81,1.3c0,0.74,0.41,1.11,2.22,1.54c2.99,0.72,3.6,1.71,3.6,3.17c0,1.73-1.38,2.99-3.83,2.99
		c-2.55,0-3.81-1.28-4.06-3.05H705.06z"/>
	<path class="st0" d="M725.85,223.76c0,2.86-1.63,5.19-4.65,5.19c-2.82,0-4.53-2.18-4.53-5.15c0-2.92,1.67-5.17,4.65-5.17
		C724.06,218.63,725.85,220.67,725.85,223.76z M718.42,223.78c0,2.18,1.09,3.75,2.86,3.75c1.79,0,2.82-1.5,2.82-3.73
		c0-2.22-1.01-3.75-2.86-3.75C719.39,220.05,718.42,221.55,718.42,223.78z"/>
	<path class="st0" d="M731.95,221.35c0-0.86,0-1.73-0.02-2.49h1.65c0.06,0.29,0.08,1.32,0.08,1.61c0.39-0.84,1.19-1.85,3.09-1.85
		c1.87,0,3.3,1.13,3.3,3.75v6.34h-1.71v-6.12c0-1.5-0.58-2.49-2.08-2.49c-1.87,0-2.6,1.42-2.6,3.4v5.21h-1.71V221.35z"/>
	<path class="st0" d="M754.08,226.56c0,0.91,0.08,1.87,0.14,2.16h-1.63c-0.08-0.21-0.14-0.68-0.16-1.28
		c-0.35,0.64-1.15,1.52-3.05,1.52c-2.33,0-3.32-1.52-3.32-3.01c0-2.2,1.73-3.21,4.67-3.21h1.67v-0.84c0-0.88-0.27-1.92-2.12-1.92
		c-1.63,0-1.92,0.82-2.1,1.57h-1.65c0.14-1.36,0.97-2.92,3.81-2.92c2.41,0,3.75,0.99,3.75,3.23V226.56z M752.41,223.92h-1.59
		c-1.96,0-3.01,0.54-3.01,1.92c0,1.03,0.7,1.77,1.92,1.77c2.37,0,2.68-1.59,2.68-3.38V223.92z"/>
	<path class="st0" d="M760.91,228.72v-14.27h1.71v14.27H760.91z"/>
	<path class="st0" d="M769.41,216.57v-2.12h1.71v2.12H769.41z M769.41,218.86h1.71v9.86h-1.71V218.86z"/>
	<path class="st0" d="M777.05,227.34l5.68-7.04h-5.39v-1.44h7.33v1.42l-5.6,7h5.87l-0.27,1.44h-7.62V227.34z"/>
	<path class="st0" d="M791.58,224.09c0.02,2,1.03,3.44,2.7,3.44c1.56,0,2.06-0.82,2.37-1.54h1.73c-0.39,1.26-1.46,2.96-4.16,2.96
		c-3.09,0-4.35-2.53-4.35-5.05c0-2.94,1.48-5.27,4.47-5.27c3.19,0,4.22,2.55,4.22,4.65c0,0.31,0,0.56-0.02,0.82H791.58z
		 M796.83,222.91c-0.02-1.63-0.84-2.94-2.51-2.94c-1.75,0-2.51,1.21-2.68,2.94H796.83z"/>
	<path class="st0" d="M812.95,214.45v11.49c0,0.91,0,1.83,0.02,2.78h-1.63c-0.06-0.25-0.1-1.01-0.1-1.4
		c-0.49,1.03-1.48,1.63-3.09,1.63c-2.55,0-4.1-2.06-4.1-5.05c0-3.03,1.69-5.27,4.41-5.27c1.75,0,2.53,0.7,2.78,1.26v-5.44H812.95z
		 M808.5,227.51c2.29,0,2.82-1.71,2.82-3.87c0-2.2-0.47-3.58-2.68-3.58c-1.75,0-2.82,1.38-2.82,3.77
		C805.81,226.21,806.94,227.51,808.5,227.51z"/>
	<path class="st0" d="M664.34,237.79h1.71v5.81c0.43-0.84,1.34-1.63,3.13-1.63c2.49,0,4.04,2.04,4.04,4.96
		c0,2.99-1.52,5.37-4.3,5.37c-1.57,0-2.41-0.58-2.9-1.54c0,0.51-0.04,1.03-0.08,1.3h-1.63c0.02-1.11,0.02-2.22,0.02-3.3V237.79z
		 M668.79,243.4c-2.1,0-2.84,1.4-2.84,3.75c0,2.06,0.66,3.69,2.74,3.69c1.75,0,2.78-1.5,2.78-3.89
		C671.47,244.82,670.5,243.4,668.79,243.4z"/>
	<path class="st0" d="M680.46,247.43c0.02,2,1.03,3.44,2.7,3.44c1.56,0,2.06-0.82,2.37-1.54h1.73c-0.39,1.26-1.46,2.96-4.16,2.96
		c-3.09,0-4.35-2.53-4.35-5.05c0-2.94,1.48-5.27,4.47-5.27c3.19,0,4.22,2.55,4.22,4.65c0,0.31,0,0.56-0.02,0.82H680.46z
		 M685.71,246.24c-0.02-1.63-0.84-2.94-2.51-2.94c-1.75,0-2.51,1.21-2.68,2.94H685.71z"/>
	<path class="st0" d="M700.86,249.9c0,0.91,0.08,1.87,0.14,2.16h-1.63c-0.08-0.21-0.14-0.68-0.16-1.28
		c-0.35,0.64-1.15,1.52-3.05,1.52c-2.33,0-3.32-1.52-3.32-3.01c0-2.2,1.73-3.21,4.67-3.21h1.67v-0.84c0-0.88-0.27-1.92-2.12-1.92
		c-1.63,0-1.92,0.82-2.1,1.57h-1.65c0.14-1.36,0.97-2.92,3.81-2.92c2.41,0,3.75,0.99,3.75,3.23V249.9z M699.19,247.25h-1.59
		c-1.96,0-3.01,0.54-3.01,1.92c0,1.03,0.7,1.77,1.92,1.77c2.37,0,2.68-1.59,2.68-3.38V247.25z"/>
	<path class="st0" d="M715.5,249.18c0,0.97,0.02,2.29,0.02,2.88h-1.65c-0.04-0.25-0.06-0.86-0.08-1.48
		c-0.49,1.09-1.42,1.71-2.97,1.71c-1.67,0-3.27-0.84-3.27-3.62v-6.47h1.69v6.12c0,1.28,0.41,2.49,2.04,2.49
		c1.81,0,2.51-1.01,2.51-3.48v-5.13h1.71V249.18z"/>
	<path class="st0" d="M721.26,242.2h1.71v-2.92h1.69v2.92h2.18v1.38h-2.18v5.77c0,0.97,0.23,1.46,1.13,1.46
		c0.23,0,0.58-0.02,0.86-0.08v1.28c-0.41,0.16-0.99,0.18-1.48,0.18c-1.54,0-2.2-0.8-2.2-2.43v-6.18h-1.71V242.2z"/>
	<path class="st0" d="M733.67,242.2c1.59,4.72,2.47,7.33,2.74,8.34h0.02c0.31-1.13,1.01-3.38,2.62-8.34h1.71l-3.54,10.3
		c-0.99,2.9-1.75,3.62-3.75,3.62c-0.31,0-0.68-0.02-1.07-0.06v-1.48c0.25,0.02,0.54,0.04,0.82,0.04c1.24,0,1.71-0.54,2.29-2.18
		l-3.69-10.24H733.67z"/>
	<path class="st0" d="M664.34,275.39v-14.27h1.71v14.27H664.34z"/>
	<path class="st0" d="M680.07,273.23c0,0.91,0.08,1.87,0.14,2.16h-1.63c-0.08-0.21-0.14-0.68-0.16-1.28
		c-0.35,0.64-1.15,1.52-3.05,1.52c-2.33,0-3.32-1.52-3.32-3.01c0-2.2,1.73-3.21,4.67-3.21h1.67v-0.84c0-0.88-0.27-1.92-2.12-1.92
		c-1.63,0-1.92,0.82-2.1,1.57h-1.65c0.14-1.36,0.97-2.92,3.81-2.92c2.41,0,3.75,0.99,3.75,3.23V273.23z M678.4,270.59h-1.59
		c-1.96,0-3.01,0.54-3.01,1.92c0,1.03,0.7,1.77,1.92,1.77c2.37,0,2.68-1.59,2.68-3.38V270.59z"/>
	<path class="st0" d="M686.9,261.12h1.71v5.81c0.43-0.84,1.34-1.63,3.13-1.63c2.49,0,4.04,2.04,4.04,4.96c0,2.99-1.52,5.37-4.3,5.37
		c-1.57,0-2.41-0.58-2.9-1.54c0,0.51-0.04,1.03-0.08,1.3h-1.63c0.02-1.11,0.02-2.22,0.02-3.3V261.12z M691.35,266.74
		c-2.1,0-2.84,1.4-2.84,3.75c0,2.06,0.66,3.69,2.74,3.69c1.75,0,2.78-1.5,2.78-3.89C694.03,268.16,693.06,266.74,691.35,266.74z"/>
</g>
<rect x="663.35" y="290.98" class="st1" width="540.98" height="525.07"/>
</svg>
